<svg xmlns="http://www.w3.org/2000/svg" xmlns:xlink="http://www.w3.org/1999/xlink" viewBox="-8.5 7.5 19.751 17.317"><defs><path id="a" d="M.5 19.5l6 4 8-10-8 5-6-4-8 10z"/></defs><g transform="translate(-7.546 21.768) scale(.15983)" fill="#fbb03b" stroke-linecap="round"><use xlink:href="#a" transform="scale(-4.35253) rotate(-15 -30.05 78.696)" width="100%" height="100%"/><path d="M-5.97-9.198v-2.701H5.157v2.701l-3.467.596v10.7h15.018v-10.7l-3.467-.596v-2.701h11.125v2.701l-3.467.596v24.4l3.467.595v2.68H13.24v-2.68l3.467-.595V5.395H1.689v10.403l3.467.595v2.68H-5.969v-2.68l3.467-.595v-24.4zM52.487-11.9v6.85h-3.574l-.319-3.552h-6.87v24.4l3.467.595v2.68H34.065v-2.68l3.468-.595v-24.4H30.64l-.297 3.553h-3.595v-6.85zM85.055-5.73l-.106-.021-10.02 24.824h-2.786L62.123-5.73l-.106.021.426 12.53v8.977l3.467.595v2.68H54.785v-2.68l3.467-.595v-24.4l-3.467-.596v-2.701h8.827l9.871 25.165h.128l9.849-25.165h8.85v2.701l-3.468.596v24.4l3.467.595v2.68H81.184v-2.68l3.467-.595V6.82zM95.287 19.073v-2.68l3.468-.595v-24.4l-3.468-.596v-2.701H106.413v2.701l-3.468.596v24.4h10.764l.32-3.553h3.573v6.828z" style="font-variant-ligatures:normal;font-variant-caps:normal;font-variant-numeric:normal;font-feature-settings:normal;text-align:start"/></g></svg>